<mxfile modified="2022-05-02T00:32:12.710Z" host="app.diagrams.net" agent="5.0 (Windows NT 10.0; Win64; x64) AppleWebKit/537.36 (KHTML, like Gecko) Chrome/100.0.4896.127 Safari/537.36 Edg/100.0.1185.50" etag="YkkELsWZFokmZ63TpcWj" compressed="false" version="17.5.0" type="google" pages="2">
  <diagram id="yy86YZXV7xs2jBiu7wsO" name="Business Context/Stakeholders">
    <mxGraphModel grid="1" page="1" gridSize="10" guides="1" tooltips="1" connect="1" arrows="1" fold="1" pageScale="1" pageWidth="827" pageHeight="1169" math="0" shadow="0">
      <root>
        <mxCell id="bKpsV9DuHYzA1KMlYHen-0" />
        <mxCell id="bKpsV9DuHYzA1KMlYHen-1" value="Diagram" parent="bKpsV9DuHYzA1KMlYHen-0" />
        <mxCell id="Kh5iJjnCnFNb-izkLKY5-0" value="Business" style="ellipse;whiteSpace=wrap;html=1;fillColor=#dae8fc;strokeColor=#6c8ebf;opacity=30;" vertex="1" parent="bKpsV9DuHYzA1KMlYHen-1">
          <mxGeometry x="280" y="70" width="130" height="130" as="geometry" />
        </mxCell>
        <mxCell id="Kh5iJjnCnFNb-izkLKY5-1" value="Users" style="ellipse;whiteSpace=wrap;html=1;fillColor=#dae8fc;strokeColor=#6c8ebf;opacity=30;" vertex="1" parent="bKpsV9DuHYzA1KMlYHen-1">
          <mxGeometry x="400" y="120" width="130" height="130" as="geometry" />
        </mxCell>
        <mxCell id="Kh5iJjnCnFNb-izkLKY5-2" value="Partners" style="ellipse;whiteSpace=wrap;html=1;fillColor=#ffe6cc;strokeColor=#d79b00;opacity=30;" vertex="1" parent="bKpsV9DuHYzA1KMlYHen-1">
          <mxGeometry x="270" y="140" width="130" height="130" as="geometry" />
        </mxCell>
        <mxCell id="Kh5iJjnCnFNb-izkLKY5-3" value="Customers" style="ellipse;whiteSpace=wrap;html=1;fillColor=#fff2cc;strokeColor=#d6b656;opacity=30;" vertex="1" parent="bKpsV9DuHYzA1KMlYHen-1">
          <mxGeometry x="370" y="70" width="130" height="130" as="geometry" />
        </mxCell>
        <mxCell id="KBdyveMo56FrOVM49Z9--1" value="Suppliers" style="ellipse;whiteSpace=wrap;html=1;fillColor=#ffe6cc;strokeColor=#d79b00;opacity=30;" vertex="1" parent="bKpsV9DuHYzA1KMlYHen-1">
          <mxGeometry x="340" y="170" width="130" height="130" as="geometry" />
        </mxCell>
        <mxCell id="Jc4pWA0rl4iGvxkrqHDy-0" value="Support" style="ellipse;whiteSpace=wrap;html=1;fillColor=#dae8fc;strokeColor=#6c8ebf;opacity=30;" vertex="1" parent="bKpsV9DuHYzA1KMlYHen-1">
          <mxGeometry x="420" y="190" width="130" height="130" as="geometry" />
        </mxCell>
        <mxCell id="DNDCZKbiNQwSNnRwAF1V-0" value="Title/Diagram" parent="bKpsV9DuHYzA1KMlYHen-0" />
        <mxCell id="KBdyveMo56FrOVM49Z9--0" value="&lt;font style=&quot;font-size: 12px ; font-weight: normal&quot;&gt;&lt;i&gt;Diagram: &lt;/i&gt;&lt;i&gt;Business Context - Stakeholders&lt;/i&gt;&lt;/font&gt;" style="text;strokeColor=none;fillColor=none;html=1;fontSize=10;fontStyle=1;verticalAlign=middle;align=left;shadow=0;glass=0;comic=0;opacity=30;fontColor=#808080;" vertex="1" parent="DNDCZKbiNQwSNnRwAF1V-0">
          <mxGeometry x="120" y="340" width="520" height="20" as="geometry" />
        </mxCell>
      </root>
    </mxGraphModel>
  </diagram>
  <diagram id="Y3ihHY7-xsXV-xelpCk2" name="Business Context/Stakeholders/Users">
    <mxGraphModel grid="1" page="1" gridSize="10" guides="1" tooltips="1" connect="1" arrows="1" fold="1" pageScale="1" pageWidth="827" pageHeight="1169" math="0" shadow="0">
      <root>
        <mxCell id="P1Z0VP_chpjnA4soMjS0-0" />
        <mxCell id="P1Z0VP_chpjnA4soMjS0-1" parent="P1Z0VP_chpjnA4soMjS0-0" />
        <mxCell id="P1Z0VP_chpjnA4soMjS0-2" value="" style="triangle;whiteSpace=wrap;html=1;rotation=-90;" vertex="1" parent="P1Z0VP_chpjnA4soMjS0-1">
          <mxGeometry x="330" y="250" width="60" height="80" as="geometry" />
        </mxCell>
        <mxCell id="P1Z0VP_chpjnA4soMjS0-3" value="Business" style="text;html=1;strokeColor=none;fillColor=none;align=center;verticalAlign=middle;whiteSpace=wrap;rounded=0;fontStyle=1" vertex="1" parent="P1Z0VP_chpjnA4soMjS0-1">
          <mxGeometry x="260" y="305" width="40" height="20" as="geometry" />
        </mxCell>
        <mxCell id="P1Z0VP_chpjnA4soMjS0-4" value="Support" style="text;html=1;strokeColor=none;fillColor=none;align=center;verticalAlign=middle;whiteSpace=wrap;rounded=0;fontStyle=1" vertex="1" parent="P1Z0VP_chpjnA4soMjS0-1">
          <mxGeometry x="430" y="300" width="40" height="20" as="geometry" />
        </mxCell>
        <mxCell id="P1Z0VP_chpjnA4soMjS0-5" value="Maintenance" style="text;html=1;strokeColor=none;fillColor=none;align=center;verticalAlign=middle;whiteSpace=wrap;rounded=0;fontStyle=1" vertex="1" parent="P1Z0VP_chpjnA4soMjS0-1">
          <mxGeometry x="431" y="263" width="40" height="20" as="geometry" />
        </mxCell>
        <mxCell id="P1Z0VP_chpjnA4soMjS0-6" value="Solve" style="text;html=1;strokeColor=none;fillColor=none;align=center;verticalAlign=middle;whiteSpace=wrap;rounded=0;fontColor=#999999;" vertex="1" parent="P1Z0VP_chpjnA4soMjS0-1">
          <mxGeometry x="380" y="315" width="140" height="30" as="geometry" />
        </mxCell>
        <mxCell id="P1Z0VP_chpjnA4soMjS0-7" value="Maintain" style="text;html=1;strokeColor=none;fillColor=none;align=center;verticalAlign=middle;whiteSpace=wrap;rounded=0;fontColor=#999999;" vertex="1" parent="P1Z0VP_chpjnA4soMjS0-1">
          <mxGeometry x="398.5" y="283" width="105" height="20" as="geometry" />
        </mxCell>
        <mxCell id="P1Z0VP_chpjnA4soMjS0-8" value="Provide" style="text;html=1;strokeColor=none;fillColor=none;align=center;verticalAlign=middle;whiteSpace=wrap;rounded=0;fontColor=#999999;" vertex="1" parent="P1Z0VP_chpjnA4soMjS0-1">
          <mxGeometry x="240" y="325" width="85" height="20" as="geometry" />
        </mxCell>
        <mxCell id="P1Z0VP_chpjnA4soMjS0-9" value="" style="triangle;whiteSpace=wrap;html=1;rotation=90;" vertex="1" parent="P1Z0VP_chpjnA4soMjS0-1">
          <mxGeometry x="333.5" y="268" width="50" height="80" as="geometry" />
        </mxCell>
        <mxCell id="P1Z0VP_chpjnA4soMjS0-10" value="Customer" style="text;html=1;strokeColor=none;fillColor=none;align=center;verticalAlign=middle;whiteSpace=wrap;rounded=0;fontStyle=1" vertex="1" parent="P1Z0VP_chpjnA4soMjS0-1">
          <mxGeometry x="335" y="220" width="40" height="20" as="geometry" />
        </mxCell>
        <mxCell id="P1Z0VP_chpjnA4soMjS0-11" value="Consume" style="text;html=1;strokeColor=none;fillColor=none;align=center;verticalAlign=middle;whiteSpace=wrap;rounded=0;fontColor=#999999;" vertex="1" parent="P1Z0VP_chpjnA4soMjS0-1">
          <mxGeometry x="315" y="240" width="85" height="20" as="geometry" />
        </mxCell>
        <mxCell id="P1Z0VP_chpjnA4soMjS0-12" value="Development" style="text;html=1;strokeColor=none;fillColor=none;align=center;verticalAlign=middle;whiteSpace=wrap;rounded=0;fontStyle=1" vertex="1" parent="P1Z0VP_chpjnA4soMjS0-1">
          <mxGeometry x="251" y="263" width="40" height="20" as="geometry" />
        </mxCell>
        <mxCell id="P1Z0VP_chpjnA4soMjS0-13" value="Create" style="text;html=1;strokeColor=none;fillColor=none;align=center;verticalAlign=middle;whiteSpace=wrap;rounded=0;fontColor=#999999;" vertex="1" parent="P1Z0VP_chpjnA4soMjS0-1">
          <mxGeometry x="218.5" y="283" width="105" height="20" as="geometry" />
        </mxCell>
        <mxCell id="P1Z0VP_chpjnA4soMjS0-14" value="Security" style="text;html=1;strokeColor=none;fillColor=none;align=center;verticalAlign=middle;whiteSpace=wrap;rounded=0;fontStyle=1" vertex="1" parent="P1Z0VP_chpjnA4soMjS0-1">
          <mxGeometry x="341" y="333" width="40" height="20" as="geometry" />
        </mxCell>
        <mxCell id="P1Z0VP_chpjnA4soMjS0-15" value="Secure" style="text;html=1;strokeColor=none;fillColor=none;align=center;verticalAlign=middle;whiteSpace=wrap;rounded=0;fontColor=#999999;" vertex="1" parent="P1Z0VP_chpjnA4soMjS0-1">
          <mxGeometry x="308.5" y="353" width="105" height="20" as="geometry" />
        </mxCell>
        <mxCell id="P1Z0VP_chpjnA4soMjS0-16" value="Diagram: Business Context - Stakeholders - Users" style="text;html=1;fontSize=12;fontStyle=2" vertex="1" parent="P1Z0VP_chpjnA4soMjS0-1">
          <mxGeometry x="120" y="420" width="520" height="20" as="geometry" />
        </mxCell>
      </root>
    </mxGraphModel>
  </diagram>
</mxfile>
